<svg width="13366" height="3181" viewBox="0 0 13366 3181" fill="none" xmlns="http://www.w3.org/2000/svg">
<path d="M4100 2600.05L3468.67 1127.85H3827.07L4370.18 2426.37H4193.74L4756.16 1127.85H5086.99L4455.65 2600.05H4100ZM5302.38 2600.05V1127.85H5630.45V1519.33L5572.56 1403.54C5622.18 1307.97 5693.86 1235.37 5787.6 1185.74C5883.17 1136.12 5991.61 1111.31 6112.92 1111.31C6250.76 1111.31 6370.23 1145.31 6471.32 1213.31C6574.24 1281.32 6642.25 1384.24 6675.33 1522.09L6540.24 1475.22C6588.03 1364.94 6667.06 1276.72 6777.34 1210.55C6887.62 1144.39 7015.35 1111.31 7160.55 1111.31C7278.18 1111.31 7382.03 1134.28 7472.09 1180.23C7563.99 1226.18 7635.67 1296.94 7687.13 1392.51C7738.59 1486.25 7764.32 1607.55 7764.32 1756.43V2600.05H7419.71V1800.54C7419.71 1670.04 7391.22 1572.63 7334.24 1508.3C7277.26 1443.98 7195.47 1411.81 7088.87 1411.81C7013.52 1411.81 6946.43 1428.35 6887.62 1461.44C6830.64 1494.52 6785.61 1543.23 6752.53 1607.55C6721.28 1671.88 6705.66 1753.67 6705.66 1852.92V2600.05H6361.04V1800.54C6361.04 1670.04 6332.55 1572.63 6275.58 1508.3C6218.6 1443.98 6136.81 1411.81 6030.21 1411.81C5954.85 1411.81 5887.77 1428.35 5828.95 1461.44C5771.97 1494.52 5726.94 1543.23 5693.86 1607.55C5662.62 1671.88 5646.99 1753.67 5646.99 1852.92V2600.05H5302.38ZM8869.06 2619.35C8718.35 2619.35 8584.18 2587.19 8466.55 2522.86C8348.92 2456.69 8256.1 2366.63 8188.09 2252.68C8120.09 2138.72 8086.09 2009.15 8086.09 1863.95C8086.09 1716.91 8120.09 1587.34 8188.09 1475.22C8256.1 1361.27 8348.92 1272.13 8466.55 1207.8C8584.18 1143.47 8718.35 1111.31 8869.06 1111.31C9021.61 1111.31 9156.7 1143.47 9274.33 1207.8C9393.8 1272.13 9486.61 1360.35 9552.78 1472.46C9620.78 1584.58 9654.79 1715.07 9654.79 1863.95C9654.79 2009.15 9620.78 2138.72 9552.78 2252.68C9486.61 2366.63 9393.8 2456.69 9274.33 2522.86C9156.7 2587.19 9021.61 2619.35 8869.06 2619.35ZM8869.06 2324.36C8953.61 2324.36 9028.96 2305.98 9095.13 2269.22C9161.29 2232.46 9212.76 2179.16 9249.52 2109.32C9288.11 2039.47 9307.41 1957.69 9307.41 1863.95C9307.41 1768.38 9288.11 1686.59 9249.52 1618.58C9212.76 1548.74 9161.29 1495.44 9095.13 1458.68C9028.96 1421.92 8954.52 1403.54 8871.82 1403.54C8787.27 1403.54 8711.91 1421.92 8645.75 1458.68C8581.42 1495.44 8529.96 1548.74 8491.36 1618.58C8452.76 1686.59 8433.46 1768.38 8433.46 1863.95C8433.46 1957.69 8452.76 2039.47 8491.36 2109.32C8529.96 2179.16 8581.42 2232.46 8645.75 2269.22C8711.91 2305.98 8786.35 2324.36 8869.06 2324.36ZM10607.4 2619.35C10465.9 2619.35 10338.1 2588.11 10224.2 2525.62C10112.1 2461.29 10023.8 2373.06 9959.51 2260.95C9895.19 2148.83 9863.02 2016.5 9863.02 1863.95C9863.02 1711.4 9895.19 1579.07 9959.51 1466.95C10023.8 1354.83 10112.1 1267.53 10224.2 1205.04C10338.1 1142.55 10465.9 1111.31 10607.4 1111.31C10730.5 1111.31 10840.8 1138.87 10938.2 1194.01C11035.6 1247.31 11112.8 1329.1 11169.8 1439.38C11226.8 1549.66 11255.3 1691.18 11255.3 1863.95C11255.3 2034.88 11227.7 2176.4 11172.6 2288.52C11117.4 2398.8 11041.2 2481.5 10943.7 2536.64C10846.3 2591.78 10734.2 2619.35 10607.4 2619.35ZM10648.7 2324.36C10731.5 2324.36 10805 2305.98 10869.3 2269.22C10935.5 2232.46 10987.9 2179.16 11026.5 2109.32C11066.9 2039.47 11087.1 1957.69 11087.1 1863.95C11087.1 1768.38 11066.9 1686.59 11026.5 1618.58C10987.9 1548.74 10935.5 1495.44 10869.3 1458.68C10805 1421.92 10731.5 1403.54 10648.7 1403.54C10566 1403.54 10491.6 1421.92 10425.4 1458.68C10361.1 1495.44 10308.7 1548.74 10268.3 1618.58C10229.7 1686.59 10210.4 1768.38 10210.4 1863.95C10210.4 1957.69 10229.7 2039.47 10268.3 2109.32C10308.7 2179.16 10361.1 2232.46 10425.4 2269.22C10491.6 2305.98 10566 2324.36 10648.7 2324.36ZM11095.4 2600.05V2252.68L11109.2 1861.19L11081.6 1469.71V554.403H11423.4V2600.05H11095.4ZM12569 2619.35C12405.4 2619.35 12262.1 2587.19 12138.9 2522.86C12017.6 2456.69 11923 2366.63 11855 2252.68C11788.8 2138.72 11755.7 2009.15 11755.7 1863.95C11755.7 1716.91 11787.9 1587.34 11852.2 1475.22C11918.4 1361.27 12008.4 1272.13 12122.4 1207.8C12238.2 1143.47 12369.6 1111.31 12516.6 1111.31C12660 1111.31 12787.7 1142.55 12899.9 1205.04C13012 1267.53 13100.2 1355.75 13164.5 1469.71C13228.9 1583.66 13261 1717.83 13261 1872.22C13261 1886.92 13260.1 1903.47 13258.3 1921.85C13258.3 1940.23 13257.3 1957.69 13255.5 1974.23H12028.7V1745.4H13073.5L12938.5 1817.08C12940.3 1732.54 12922.8 1658.1 12886.1 1593.77C12849.3 1529.44 12798.8 1478.9 12734.4 1442.14C12671.9 1405.38 12599.3 1387 12516.6 1387C12432.1 1387 12357.7 1405.38 12293.3 1442.14C12230.8 1478.9 12181.2 1530.36 12144.5 1596.53C12109.5 1660.86 12092.1 1737.13 12092.1 1825.35V1880.49C12092.1 1968.71 12112.3 2046.83 12152.7 2114.83C12193.2 2182.84 12250.1 2235.22 12323.7 2271.98C12397.2 2308.74 12481.7 2327.12 12577.3 2327.12C12660 2327.12 12734.4 2314.25 12800.6 2288.52C12866.8 2262.79 12925.6 2222.35 12977.1 2167.21L13161.8 2379.5C13095.6 2456.69 13012 2516.43 12910.9 2558.7C12811.6 2599.13 12697.7 2619.35 12569 2619.35Z" fill="black"/>
<rect x="2179.14" width="580.408" height="3337.35" rx="290.204" transform="rotate(30 2179.14 0)" fill="black"/>
<rect x="1088.27" y="66.644" width="580.408" height="2176.53" rx="290.204" transform="rotate(30 1088.27 66.644)" fill="black"/>
</svg>
